<?xml version="1.0" encoding="UTF-8" standalone="no"?>
<svg width="77px" height="133px" viewBox="0 0 77 133" version="1.1" xmlns="http://www.w3.org/2000/svg" xmlns:xlink="http://www.w3.org/1999/xlink" xmlns:sketch="http://www.bohemiancoding.com/sketch/ns">
    <!-- Generator: Sketch 3.4.2 (15857) - http://www.bohemiancoding.com/sketch -->
    <title>editme</title>
    <desc>Created with Sketch.</desc>
    <defs></defs>
    <g id="Page-1" stroke="none" stroke-width="1" fill="none" fill-rule="evenodd" sketch:type="MSPage">
        <g id="editme" sketch:type="MSLayerGroup" transform="translate(0.000000, -2.000000)">
            <path d="M10.076,17.24 C10.076,17.152 10.01,17.042 9.9,16.91 C9.768,16.778 9.614,16.712 9.438,16.712 C9.218,16.712 9.02,16.778 8.844,16.888 C8.646,17.02 8.448,17.152 8.228,17.284 C7.986,17.416 7.744,17.548 7.48,17.658 C7.216,17.79 6.93,17.878 6.666,17.944 C6.38,18.032 6.094,18.054 5.83,18.054 C5.346,18.054 4.906,17.966 4.532,17.79 C4.136,17.636 3.784,17.416 3.52,17.108 C3.234,16.822 3.036,16.47 2.926,16.03 C2.794,15.59 2.75,15.15 2.75,14.688 C3.102,14.908 3.52,15.062 4.004,15.194 C4.488,15.326 4.95,15.392 5.39,15.392 C6.006,15.392 6.6,15.326 7.172,15.15 C7.744,14.974 8.228,14.754 8.668,14.468 C9.086,14.204 9.416,13.874 9.68,13.5 C9.944,13.148 10.076,12.752 10.076,12.334 C10.076,11.762 9.9,11.234 9.548,10.794 C9.174,10.376 8.712,10.024 8.162,9.716 C7.722,9.496 7.194,9.32 6.622,9.188 C6.028,9.078 5.478,9.012 4.972,9.012 C4.466,9.012 3.982,9.188 3.498,9.54 C3.014,9.892 2.574,10.354 2.2,10.904 C1.804,11.476 1.474,12.114 1.232,12.818 C0.99,13.522 0.88,14.248 0.88,14.952 C0.88,15.48 0.968,16.008 1.144,16.514 C1.32,17.042 1.606,17.482 1.98,17.878 C2.354,18.274 2.838,18.604 3.432,18.846 C4.004,19.066 4.686,19.198 5.5,19.198 C5.984,19.198 6.49,19.154 7.04,19.066 C7.568,18.978 8.052,18.824 8.492,18.648 C8.932,18.472 9.328,18.274 9.636,18.032 C9.922,17.812 10.076,17.548 10.076,17.24 L10.076,17.24 Z M8.492,12.4 C8.492,12.664 8.382,12.906 8.206,13.126 C8.008,13.346 7.766,13.544 7.48,13.698 C7.172,13.852 6.82,13.962 6.468,14.05 C6.094,14.138 5.742,14.182 5.39,14.182 C4.774,14.182 4.246,14.094 3.828,13.874 C3.388,13.698 3.124,13.412 2.992,13.038 C3.08,12.686 3.212,12.356 3.388,12.026 C3.564,11.718 3.762,11.432 4.004,11.19 C4.224,10.948 4.466,10.75 4.752,10.596 C5.016,10.464 5.302,10.376 5.61,10.376 C5.896,10.376 6.226,10.42 6.6,10.508 C6.974,10.596 7.304,10.728 7.568,10.882 C7.832,11.058 8.052,11.256 8.228,11.498 C8.404,11.762 8.492,12.07 8.492,12.4 L8.492,12.4 Z M21.318,4.722 C21.318,4.678 21.274,4.612 21.208,4.524 C21.12,4.436 20.988,4.348 20.856,4.26 C20.724,4.172 20.57,4.106 20.416,4.018 C20.24,3.974 20.064,3.93 19.888,3.93 C19.602,3.93 19.404,4.04 19.294,4.238 C19.206,4.37 19.14,4.722 19.096,5.272 C19.052,5.844 19.008,6.46 19.008,7.12 C18.986,7.252 18.964,7.582 18.964,8.11 L18.964,10.09 C18.524,9.672 18.084,9.386 17.622,9.21 C17.138,9.078 16.632,8.99 16.082,8.99 C15.312,8.99 14.652,9.21 14.124,9.628 C13.596,10.068 13.156,10.574 12.804,11.19 C12.452,11.828 12.21,12.488 12.056,13.192 C11.902,13.896 11.836,14.534 11.836,15.062 C11.836,15.678 11.924,16.206 12.1,16.69 C12.276,17.196 12.54,17.636 12.892,17.988 C13.244,18.362 13.706,18.648 14.256,18.846 C14.784,19.022 15.422,19.132 16.148,19.132 C16.61,19.132 17.094,19 17.622,18.736 C18.128,18.472 18.546,18.098 18.854,17.614 C18.854,17.878 18.876,18.142 18.92,18.362 C18.942,18.604 18.986,18.802 19.074,18.956 C19.14,19.11 19.25,19.242 19.404,19.33 C19.558,19.418 19.756,19.484 20.02,19.484 C20.218,19.484 20.416,19.418 20.636,19.33 C20.856,19.242 20.966,19.11 20.966,18.978 C20.966,18.912 20.944,18.846 20.944,18.802 C20.922,18.78 20.922,18.758 20.922,18.714 C20.922,18.692 20.9,18.67 20.9,18.626 C20.856,18.56 20.856,18.494 20.856,18.428 L20.812,18.23 C20.768,17.966 20.746,17.68 20.746,17.394 C20.724,17.13 20.724,16.844 20.724,16.558 C20.724,15.392 20.746,14.226 20.812,13.06 C20.856,11.916 20.878,10.75 20.878,9.562 C20.878,9.034 20.9,8.506 20.944,7.978 L21.076,6.416 C21.076,6.262 21.098,6.108 21.142,5.932 L21.23,5.448 C21.23,5.404 21.252,5.338 21.252,5.272 L21.296,5.096 C21.296,5.03 21.318,4.964 21.318,4.898 L21.318,4.722 Z M18.898,13.368 C18.898,13.786 18.854,14.248 18.788,14.776 C18.7,15.304 18.546,15.81 18.348,16.272 C18.128,16.756 17.82,17.152 17.446,17.46 C17.05,17.79 16.566,17.944 15.972,17.944 C15.51,17.944 15.136,17.856 14.85,17.68 C14.542,17.504 14.322,17.284 14.168,16.998 C13.992,16.734 13.86,16.426 13.816,16.096 C13.728,15.788 13.706,15.48 13.706,15.172 C13.706,14.82 13.75,14.358 13.86,13.83 C13.948,13.302 14.124,12.796 14.344,12.312 C14.564,11.828 14.872,11.41 15.268,11.058 C15.62,10.728 16.082,10.552 16.632,10.552 C17.072,10.552 17.468,10.662 17.776,10.838 C18.062,11.036 18.282,11.278 18.458,11.542 C18.612,11.828 18.722,12.136 18.788,12.466 C18.854,12.796 18.898,13.104 18.898,13.368 L18.898,13.368 Z M25.608,7.076 C25.96,7.076 26.246,6.988 26.466,6.79 C26.686,6.614 26.796,6.35 26.796,5.998 C26.796,5.58 26.642,5.25 26.334,4.986 C26.004,4.766 25.63,4.634 25.19,4.634 C24.838,4.634 24.552,4.744 24.31,4.942 C24.068,5.14 23.958,5.404 23.958,5.734 C23.958,5.932 24.002,6.108 24.09,6.262 C24.178,6.438 24.31,6.57 24.486,6.702 C24.618,6.834 24.794,6.922 25.014,6.966 C25.19,7.054 25.388,7.076 25.608,7.076 L25.608,7.076 Z M26.202,10.618 C26.202,10.552 26.224,10.486 26.246,10.442 L26.246,10.244 C26.246,10.156 26.202,10.068 26.114,9.98 C26.026,9.892 25.916,9.826 25.806,9.738 C25.674,9.65 25.542,9.584 25.41,9.54 C25.256,9.496 25.124,9.474 25.014,9.474 C24.794,9.474 24.618,9.496 24.53,9.54 C24.442,9.584 24.354,9.672 24.31,9.782 C24.222,9.958 24.178,10.178 24.178,10.42 L24.178,12.95 C24.156,13.412 24.156,13.896 24.156,14.402 C24.156,14.908 24.134,15.392 24.134,15.832 L24.134,17.724 C24.134,17.856 24.156,18.01 24.222,18.142 C24.288,18.318 24.376,18.45 24.486,18.582 C24.596,18.714 24.728,18.802 24.86,18.89 C24.992,18.978 25.102,19 25.234,19 C25.366,19 25.498,18.978 25.63,18.89 C25.74,18.802 25.85,18.714 25.938,18.582 C26.004,18.472 26.07,18.34 26.114,18.186 C26.158,18.054 26.18,17.944 26.18,17.812 C26.092,17.614 26.048,17.394 26.026,17.174 C25.982,16.976 25.982,16.8 25.982,16.624 L25.982,14.446 C25.982,14.116 26.004,13.786 26.004,13.478 C26.004,13.17 26.004,12.862 26.026,12.598 L26.026,11.982 C26.026,11.74 26.07,11.498 26.114,11.278 L26.202,10.618 Z M36.63,17.68 C36.63,17.57 36.564,17.46 36.476,17.35 C36.388,17.262 36.256,17.218 36.102,17.218 C35.904,17.218 35.772,17.262 35.684,17.35 C35.596,17.438 35.53,17.548 35.486,17.658 C35.442,17.724 35.42,17.79 35.376,17.834 C35.332,17.878 35.31,17.922 35.31,17.922 C35.134,18.076 34.914,18.142 34.65,18.142 C34.254,18.142 33.946,17.966 33.704,17.614 C33.44,17.262 33.33,16.668 33.33,15.832 C33.33,15.15 33.33,14.446 33.374,13.742 C33.396,13.06 33.44,12.312 33.484,11.52 C33.594,11.52 33.748,11.498 33.924,11.476 L34.408,11.432 C34.804,11.388 35.156,11.322 35.464,11.234 C35.728,11.168 35.948,11.08 36.168,10.97 C36.388,10.882 36.498,10.728 36.498,10.552 C36.498,10.42 36.432,10.332 36.344,10.288 C36.212,10.244 36.102,10.222 35.992,10.178 C35.926,10.178 35.838,10.178 35.728,10.134 L35.288,10.09 L33.572,10.09 C33.572,10.002 33.594,9.87 33.616,9.672 L33.704,9.056 L33.792,8.396 C33.792,8.176 33.814,8 33.858,7.846 L33.924,7.45 C33.946,7.34 33.968,7.208 33.968,7.076 C33.968,6.988 33.902,6.9 33.792,6.79 C33.682,6.702 33.55,6.614 33.418,6.526 C33.264,6.46 33.11,6.394 32.956,6.328 C32.78,6.284 32.626,6.24 32.538,6.24 C32.362,6.24 32.208,6.262 32.076,6.306 C31.9,6.35 31.79,6.416 31.724,6.482 C31.702,6.504 31.68,6.548 31.658,6.614 C31.614,6.68 31.614,6.746 31.614,6.812 C31.614,6.9 31.592,7.098 31.592,7.406 C31.592,7.714 31.57,8.066 31.57,8.418 C31.548,8.77 31.548,9.122 31.548,9.43 C31.526,9.782 31.526,10.002 31.526,10.112 C31.438,10.112 31.284,10.134 31.108,10.134 L30.536,10.178 C30.316,10.178 30.118,10.2 29.92,10.2 C29.722,10.222 29.568,10.222 29.458,10.222 C29.238,10.222 29.084,10.266 28.952,10.31 C28.82,10.376 28.776,10.486 28.776,10.64 C28.776,10.948 28.842,11.212 29.018,11.476 C29.172,11.74 29.392,11.872 29.7,11.872 C29.92,11.872 30.184,11.85 30.492,11.806 L31.482,11.718 C31.46,12.444 31.46,13.104 31.46,13.72 C31.438,14.336 31.438,14.952 31.438,15.546 C31.438,15.986 31.46,16.404 31.548,16.822 C31.614,17.262 31.746,17.658 31.944,18.01 C32.142,18.362 32.428,18.626 32.78,18.846 C33.11,19.066 33.55,19.176 34.122,19.176 C34.342,19.176 34.606,19.132 34.936,19.066 C35.244,19 35.53,18.89 35.794,18.758 C35.992,18.648 36.19,18.494 36.366,18.274 C36.542,18.098 36.63,17.9 36.63,17.68 L36.63,17.68 Z M57.86,18.186 L57.86,15.26 C57.86,14.82 57.838,14.358 57.816,13.874 C57.772,13.412 57.684,12.95 57.574,12.466 C57.442,12.004 57.288,11.564 57.09,11.146 C56.87,10.728 56.606,10.354 56.298,10.024 C56.056,9.804 55.792,9.606 55.506,9.43 C55.198,9.298 54.89,9.21 54.582,9.21 C54.054,9.21 53.592,9.452 53.196,9.892 C52.778,10.354 52.448,10.926 52.206,11.63 C51.942,10.926 51.59,10.398 51.172,10.09 C50.754,9.782 50.292,9.628 49.764,9.628 C49.412,9.628 49.104,9.716 48.84,9.87 C48.576,10.046 48.334,10.288 48.114,10.596 C47.982,10.728 47.894,10.86 47.828,10.992 C47.74,11.124 47.674,11.256 47.608,11.366 L47.608,10.068 C47.608,9.782 47.52,9.518 47.388,9.298 C47.234,9.078 47.014,8.946 46.706,8.946 C46.398,8.946 46.178,9.034 46.046,9.21 C45.892,9.408 45.826,9.606 45.826,9.804 C45.826,10.024 45.826,10.288 45.848,10.618 C45.848,10.97 45.87,11.41 45.892,11.938 L45.936,13.302 L45.936,16.184 C45.936,16.404 45.914,16.668 45.892,16.976 L45.826,17.9 C45.782,18.032 45.76,18.142 45.76,18.274 C45.76,18.406 45.738,18.516 45.716,18.626 C45.716,18.78 45.826,18.89 46.024,18.978 C46.2,19.066 46.398,19.132 46.574,19.132 C46.728,19.132 46.904,19.066 47.08,18.978 C47.234,18.89 47.366,18.78 47.476,18.626 C47.52,18.538 47.586,18.318 47.63,17.966 C47.674,17.636 47.696,17.24 47.696,16.756 L47.696,15.37 C47.696,15.084 47.718,14.798 47.718,14.534 L47.718,14.006 C47.718,13.83 47.762,13.544 47.872,13.192 C47.96,12.84 48.092,12.51 48.268,12.158 C48.466,11.762 48.73,11.454 49.06,11.19 C49.368,10.97 49.61,10.838 49.83,10.838 C50.028,10.838 50.204,11.014 50.38,11.322 C50.534,11.674 50.644,12.092 50.732,12.576 C50.776,13.016 50.82,13.412 50.842,13.786 C50.842,14.182 50.864,14.446 50.864,14.556 C50.864,14.776 50.864,15.018 50.886,15.326 L50.93,16.206 C50.93,16.514 50.952,16.8 50.952,17.02 C50.952,17.262 50.974,17.416 50.974,17.46 C50.974,17.57 50.974,17.702 51.018,17.856 C51.04,18.032 51.084,18.186 51.15,18.318 C51.194,18.472 51.282,18.604 51.392,18.692 C51.48,18.802 51.612,18.846 51.766,18.846 C51.964,18.846 52.184,18.758 52.426,18.582 C52.646,18.428 52.778,18.23 52.778,17.966 L52.778,17.658 C52.778,17.526 52.756,17.372 52.756,17.196 L52.756,16.778 C52.734,16.646 52.734,16.558 52.734,16.514 L52.734,16.162 C52.734,15.986 52.712,15.788 52.712,15.568 L52.712,14.6 C52.712,14.358 52.756,14.006 52.844,13.544 C52.932,13.104 53.064,12.642 53.24,12.202 C53.394,11.762 53.592,11.388 53.856,11.058 C54.098,10.728 54.384,10.552 54.692,10.552 C54.824,10.552 54.978,10.64 55.132,10.794 C55.264,10.948 55.374,11.146 55.484,11.41 C55.594,11.674 55.682,11.982 55.77,12.334 C55.836,12.708 55.902,13.082 55.946,13.478 C55.99,13.83 56.012,14.182 56.034,14.534 L56.078,15.502 C56.078,15.81 56.1,16.074 56.1,16.272 L56.1,16.69 C56.1,16.954 56.078,17.218 56.056,17.504 C56.034,17.812 56.012,18.01 55.99,18.098 C55.946,18.142 55.88,18.208 55.836,18.296 C55.748,18.384 55.726,18.472 55.726,18.516 C55.726,18.604 55.748,18.67 55.836,18.758 C55.902,18.868 55.99,18.956 56.1,19.044 C56.188,19.132 56.276,19.198 56.386,19.286 C56.474,19.33 56.562,19.374 56.65,19.374 C57.046,19.374 57.332,19.264 57.552,19.066 C57.75,18.868 57.86,18.582 57.86,18.186 L57.86,18.186 Z M69.256,17.24 C69.256,17.152 69.19,17.042 69.08,16.91 C68.948,16.778 68.794,16.712 68.618,16.712 C68.398,16.712 68.2,16.778 68.024,16.888 C67.826,17.02 67.628,17.152 67.408,17.284 C67.166,17.416 66.924,17.548 66.66,17.658 C66.396,17.79 66.11,17.878 65.846,17.944 C65.56,18.032 65.274,18.054 65.01,18.054 C64.526,18.054 64.086,17.966 63.712,17.79 C63.316,17.636 62.964,17.416 62.7,17.108 C62.414,16.822 62.216,16.47 62.106,16.03 C61.974,15.59 61.93,15.15 61.93,14.688 C62.282,14.908 62.7,15.062 63.184,15.194 C63.668,15.326 64.13,15.392 64.57,15.392 C65.186,15.392 65.78,15.326 66.352,15.15 C66.924,14.974 67.408,14.754 67.848,14.468 C68.266,14.204 68.596,13.874 68.86,13.5 C69.124,13.148 69.256,12.752 69.256,12.334 C69.256,11.762 69.08,11.234 68.728,10.794 C68.354,10.376 67.892,10.024 67.342,9.716 C66.902,9.496 66.374,9.32 65.802,9.188 C65.208,9.078 64.658,9.012 64.152,9.012 C63.646,9.012 63.162,9.188 62.678,9.54 C62.194,9.892 61.754,10.354 61.38,10.904 C60.984,11.476 60.654,12.114 60.412,12.818 C60.17,13.522 60.06,14.248 60.06,14.952 C60.06,15.48 60.148,16.008 60.324,16.514 C60.5,17.042 60.786,17.482 61.16,17.878 C61.534,18.274 62.018,18.604 62.612,18.846 C63.184,19.066 63.866,19.198 64.68,19.198 C65.164,19.198 65.67,19.154 66.22,19.066 C66.748,18.978 67.232,18.824 67.672,18.648 C68.112,18.472 68.508,18.274 68.816,18.032 C69.102,17.812 69.256,17.548 69.256,17.24 L69.256,17.24 Z M67.672,12.4 C67.672,12.664 67.562,12.906 67.386,13.126 C67.188,13.346 66.946,13.544 66.66,13.698 C66.352,13.852 66,13.962 65.648,14.05 C65.274,14.138 64.922,14.182 64.57,14.182 C63.954,14.182 63.426,14.094 63.008,13.874 C62.568,13.698 62.304,13.412 62.172,13.038 C62.26,12.686 62.392,12.356 62.568,12.026 C62.744,11.718 62.942,11.432 63.184,11.19 C63.404,10.948 63.646,10.75 63.932,10.596 C64.196,10.464 64.482,10.376 64.79,10.376 C65.076,10.376 65.406,10.42 65.78,10.508 C66.154,10.596 66.484,10.728 66.748,10.882 C67.012,11.058 67.232,11.256 67.408,11.498 C67.584,11.762 67.672,12.07 67.672,12.4 L67.672,12.4 Z M76.098,5.8 C76.098,5.712 76.054,5.624 75.966,5.514 C75.878,5.426 75.768,5.36 75.636,5.294 C75.504,5.228 75.35,5.162 75.218,5.118 C75.064,5.074 74.932,5.052 74.844,5.052 C74.646,5.052 74.492,5.118 74.382,5.206 C74.294,5.272 74.184,5.404 74.096,5.602 C74.008,5.8 73.92,6.042 73.832,6.35 C73.744,6.658 73.678,6.988 73.612,7.362 C73.546,7.758 73.48,8.154 73.436,8.594 C73.348,9.144 73.304,9.694 73.26,10.244 C73.216,10.816 73.172,11.344 73.15,11.828 C73.106,12.334 73.084,12.774 73.084,13.148 C73.062,13.544 73.062,13.808 73.062,13.984 C73.062,14.116 73.062,14.27 73.084,14.446 C73.084,14.644 73.128,14.82 73.194,14.974 C73.238,15.15 73.326,15.304 73.436,15.414 C73.546,15.546 73.7,15.59 73.92,15.59 C74.052,15.59 74.228,15.546 74.426,15.414 C74.602,15.282 74.712,15.15 74.712,15.018 C74.712,14.908 74.69,14.798 74.69,14.666 C74.668,14.534 74.668,14.424 74.668,14.292 C74.668,13.192 74.69,12.092 74.756,10.97 C74.8,9.87 74.954,8.792 75.218,7.692 C75.262,7.472 75.35,7.23 75.438,6.988 C75.526,6.768 75.636,6.548 75.79,6.328 L75.988,6.064 C76.054,5.976 76.098,5.888 76.098,5.8 L76.098,5.8 Z M74.998,18.01 C74.998,17.746 74.866,17.526 74.624,17.35 C74.382,17.196 74.118,17.108 73.832,17.108 C73.48,17.108 73.128,17.218 72.82,17.438 C72.49,17.658 72.336,17.922 72.336,18.252 C72.336,18.516 72.446,18.714 72.688,18.89 C72.93,19.066 73.172,19.176 73.436,19.176 C73.612,19.176 73.788,19.132 73.986,19.088 C74.162,19.022 74.338,18.956 74.492,18.846 C74.624,18.758 74.756,18.626 74.844,18.494 C74.932,18.362 74.998,18.186 74.998,18.01 L74.998,18.01 Z" id="edit-me!" fill="#212121" sketch:type="MSShapeGroup" transform="translate(39.369000, 11.707000) rotate(5.000000) translate(-39.369000, -11.707000) "></path>
            <path d="M36.9511719,27.7753906 C41.8227532,88.7411554 42.8001835,88.7345595 5.44140625,133.316406" id="Path-1" stroke="#979797" stroke-width="2" stroke-linecap="round" sketch:type="MSShapeGroup"></path>
            <path d="M22.1137695,127.851562 C12.5276641,133.332935 -0.909687849,139.609477 3.80175781,122.318359" id="Path-2" stroke="#979797" stroke-width="2" stroke-linecap="round" sketch:type="MSShapeGroup"></path>
        </g>
    </g>
</svg>